<svg xmlns="http://www.w3.org/2000/svg" viewBox="0 0 512 512">
  <defs>
    <linearGradient id="bg" x1="0%" y1="0%" x2="100%" y2="100%">
      <stop offset="0%" stop-color="#4F46E5"/>
      <stop offset="100%" stop-color="#10B981"/>
    </linearGradient>
  </defs>
  <rect width="512" height="512" rx="112" fill="url(#bg)"/>
  <!-- Radiator Icon inside -->
  <g transform="translate(128, 128) scale(0.5)">
    <path fill="white" d="M384 32h-64V16c0-8.8-7.2-16-16-16H208c-8.8 0-16 7.2-16 16v16h-64V16c0-8.8-7.2-16-16-16H48C39.2 0 32 7.2 32 16v16H16C7.2 32 0 39.2 0 48v416c0 8.8 7.2 16 16 16h16v16c0 8.8 7.2 16 16 16h64c8.8 0 16-7.2 16-16v-16h64v16c0 8.8 7.2 16 16 16h64c8.8 0 16-7.2 16-16v-16h64v16c0 8.8 7.2 16 16 16h64c8.8 0 16-7.2 16-16v-16h16c8.8 0 16-7.2 16-16V48c0-8.8-7.2-16-16-16h-16zM96 448H64V64h32v384zm96 0h-32V64h32v384zm96 0h-32V64h32v384zm96 0h-32V64h32v384z"/>
  </g>
  <text x="256" y="400" fill="white" font-family="sans-serif" font-weight="bold" font-size="64" text-anchor="middle">Proterco</text>
</svg>
